<?xml version="1.0" encoding="UTF-8" standalone="no"?>
<!-- Created with Inkscape (http://www.inkscape.org/) -->

<svg
   xmlns:dc="http://purl.org/dc/elements/1.1/"
   xmlns:cc="http://creativecommons.org/ns#"
   xmlns:rdf="http://www.w3.org/1999/02/22-rdf-syntax-ns#"
   xmlns:svg="http://www.w3.org/2000/svg"
   xmlns="http://www.w3.org/2000/svg"
   xmlns:sodipodi="http://sodipodi.sourceforge.net/DTD/sodipodi-0.dtd"
   xmlns:inkscape="http://www.inkscape.org/namespaces/inkscape"
   width="500"
   height="500"
   viewBox="0 0 132.29166 132.29167"
   version="1.1"
   id="svg8"
   inkscape:version="0.92.4 (5da689c313, 2019-01-14)"
   sodipodi:docname="printer.svg">
  <defs
     id="defs2" />
  <sodipodi:namedview
     id="base"
     pagecolor="#ffffff"
     bordercolor="#666666"
     borderopacity="1.0"
     inkscape:pageopacity="0"
     inkscape:pageshadow="2"
     inkscape:zoom="1.5236477"
     inkscape:cx="266.97915"
     inkscape:cy="260.86287"
     inkscape:document-units="mm"
     inkscape:current-layer="layer1"
     showgrid="false"
     units="px"
     inkscape:pagecheckerboard="true" />
  <metadata
     id="metadata5">
    <rdf:RDF>
      <cc:Work
         rdf:about="">
        <dc:format>image/svg+xml</dc:format>
        <dc:type
           rdf:resource="http://purl.org/dc/dcmitype/StillImage" />
        <dc:title></dc:title>
      </cc:Work>
    </rdf:RDF>
  </metadata>
  <g
     inkscape:label="Layer 1"
     inkscape:groupmode="layer"
     id="layer1"
     transform="translate(0,-164.70832)">
    <path
       style="fill:#f0f0f0;fill-opacity:0;stroke:#f0f0f0;stroke-width:1.32291663;stroke-miterlimit:10;stroke-dasharray:none;stroke-opacity:1"
       d="m 36.019541,174.41301 h 61.294475 c 3.463304,0 6.251444,2.78814 6.251444,6.25144 0,0 4.83684,33.53308 4.86223,50.34806 0.0267,17.67486 -4.86223,52.93244 -4.86223,52.93244 -0.20416,3.45728 -2.78814,6.25145 -6.251444,6.25145 H 36.019541 c -3.4633,0 -6.251444,-2.78815 -6.251444,-6.25145 0,0 -4.903869,-35.82158 -4.862234,-53.62704 0.03909,-16.71545 4.862234,-49.65346 4.862234,-49.65346 0.263846,-3.45324 2.788144,-6.25144 6.251444,-6.25144 z"
       id="rect1366"
       inkscape:connector-curvature="0"
       sodipodi:nodetypes="sssssssssss" />
    <rect
       style="fill:#ffffff;fill-opacity:0;stroke:#f0f0f0;stroke-width:0.52916664;stroke-miterlimit:10;stroke-dasharray:none;stroke-opacity:1"
       id="rect1368"
       width="1.5119048"
       height="5.2916665"
       x="155.72618"
       y="456.50595" />
    <path
       style="fill:#f0f0f0;fill-opacity:0;stroke:#f0f0f0;stroke-width:4.01968908;stroke-miterlimit:10;stroke-dasharray:none;stroke-opacity:1"
       d="m 45.166913,186.58326 h 43.377634 c 3.844993,0 6.940421,3.18054 6.940421,7.13128 0,0 2.776169,26.14802 2.776169,39.04374 0,12.89573 -2.776169,38.33062 -2.776169,38.33062 0,3.95073 -3.095428,7.13128 -6.940421,7.13128 H 45.166913 c -3.844993,0 -6.940421,-3.18055 -6.940421,-7.13128 0,0 -2.776169,-26.14802 -2.776169,-39.04374 0,-12.89574 2.776169,-38.33062 2.776169,-38.33062 0,-3.95074 3.095428,-7.13128 6.940421,-7.13128 z"
       id="rect1371"
       inkscape:connector-curvature="0"
       sodipodi:nodetypes="sssssssssss" />
    <path
       style="fill:#f0f0f0;fill-opacity:1;stroke:#f0f0f0;stroke-width:0.27412215;stroke-linecap:butt;stroke-linejoin:miter;stroke-miterlimit:4;stroke-dasharray:none;stroke-opacity:1"
       mask="none"
       clip-path="none"
       d="m 37.166491,256.37037 1.041623,13.42258 3.819801,6.71185 h 50.35026 l 3.125384,-6.71185 0.694415,-13.42258 z m 20.660918,4.66079 H 75.36294 c 0.480932,0 0.868534,0.41563 0.868534,0.93204 v 10.44004 c 0,0.51641 -0.387602,0.93204 -0.868534,0.93204 H 57.827409 c -0.480935,0 -0.868019,-0.41563 -0.868019,-0.93204 V 261.9632 c 0,-0.51641 0.387084,-0.93204 0.868019,-0.93204 z"
       id="path6534"
       inkscape:connector-curvature="0" />
  </g>
</svg>
